<svg xmlns="http://www.w3.org/2000/svg" width="24" height="22" fill="none" viewBox="0 0 24 22"><path fill="#381B1B" d="M12 .25c6.283 0 11.376 3.97 11.376 8.867s-5.093 8.866-11.375 8.866c-.625-.001-1.25-.04-1.87-.12l-4.776 3.124c-.543.287-.735.256-.511-.447l.966-3.985C2.69 14.974.626 12.233.626 9.117.626 4.22 5.718.25 12.001.25m6.4 8.732 1.593-1.543a.511.511 0 0 0-.71-.734l-2.09 2.021v-1.67a.511.511 0 0 0-1.022 0v2.77a.542.542 0 0 0 0 .24v1.559a.511.511 0 0 0 1.023 0v-1.477l.462-.447 1.547 2.202a.513.513 0 0 0 .838-.588l-1.64-2.333Zm-3.204 2.084h-1.582V7.072a.511.511 0 0 0-1.021 0v4.505a.51.51 0 0 0 .51.512h2.093a.511.511 0 0 0 0-1.023ZM8.852 9.884l.754-1.85.691 1.849-1.445.001Zm2.733.528.002-.018a.51.51 0 0 0-.137-.346l-1.133-3.034a.748.748 0 0 0-.68-.513.758.758 0 0 0-.707.484L7.13 11.4a.511.511 0 1 0 .946.386l.36-.88h2.242l.323.866a.511.511 0 1 0 .958-.357l-.374-1.003Zm-3.6-3.335a.51.51 0 0 0-.51-.511H3.96a.511.511 0 0 0 0 1.022h1.256v4.048a.511.511 0 0 0 1.023 0V7.589h1.235a.509.509 0 0 0 .511-.512Z"/></svg>