<svg width="20" height="20" viewBox="0 0 20 20" fill="none" xmlns="http://www.w3.org/2000/svg">
<path fill-rule="evenodd" clip-rule="evenodd" d="M18.4022 11.58C18.7599 11.77 19.0359 12.07 19.23 12.37C19.6081 12.99 19.5775 13.75 19.2096 14.42L18.4942 15.62C18.1161 16.26 17.4109 16.66 16.6854 16.66C16.3277 16.66 15.9291 16.56 15.6021 16.36C15.3364 16.19 15.0298 16.13 14.7028 16.13C13.691 16.13 12.8428 16.96 12.8121 17.95C12.8121 19.1 11.8719 20 10.6967 20H9.30682C8.12135 20 7.18115 19.1 7.18115 17.95C7.16071 16.96 6.31248 16.13 5.30075 16.13C4.9635 16.13 4.65691 16.19 4.40142 16.36C4.0744 16.56 3.66561 16.66 3.31815 16.66C2.58234 16.66 1.87719 16.26 1.49906 15.62L0.793913 14.42C0.415789 13.77 0.39535 12.99 0.773474 12.37C0.936987 12.07 1.24357 11.77 1.59104 11.58C1.87719 11.44 2.06114 11.21 2.23487 10.94C2.74585 10.08 2.43926 8.95 1.5706 8.44C0.558863 7.87 0.231836 6.6 0.814352 5.61L1.49906 4.43C2.0918 3.44 3.35903 3.09 4.38098 3.67C5.27009 4.15 6.4249 3.83 6.9461 2.98C7.10961 2.7 7.20159 2.4 7.18115 2.1C7.16071 1.71 7.27312 1.34 7.46729 1.04C7.84542 0.42 8.53013 0.02 9.27616 0H10.7171C11.4734 0 12.1581 0.42 12.5362 1.04C12.7202 1.34 12.8428 1.71 12.8121 2.1C12.7917 2.4 12.8837 2.7 13.0472 2.98C13.5684 3.83 14.7232 4.15 15.6225 3.67C16.6343 3.09 17.9117 3.44 18.4942 4.43L19.1789 5.61C19.7717 6.6 19.4446 7.87 18.4227 8.44C17.554 8.95 17.2474 10.08 17.7686 10.94C17.9321 11.21 18.1161 11.44 18.4022 11.58ZM7.10961 10.01C7.10961 11.58 8.4075 12.83 10.012 12.83C11.6164 12.83 12.8837 11.58 12.8837 10.01C12.8837 8.44 11.6164 7.18 10.012 7.18C8.4075 7.18 7.10961 8.44 7.10961 10.01Z" fill="#B0B9C2"/>
</svg>
