<svg width="24" height="22" viewBox="0 0 24 22" fill="none" xmlns="http://www.w3.org/2000/svg">
<path d="M9.38325 20.4188V13.8968H14.6003V20.4188C14.6024 20.763 14.74 21.0924 14.9833 21.3358C15.2267 21.5791 15.5561 21.7167 15.9003 21.7188H19.8133C20.1574 21.7167 20.4868 21.5791 20.7302 21.3358C20.9735 21.0924 21.1112 20.763 21.1133 20.4188V11.2888H23.3303C23.4625 11.2899 23.5918 11.2504 23.7009 11.1757C23.8101 11.1011 23.8937 10.9947 23.9405 10.8711C23.9873 10.7474 23.9952 10.6124 23.963 10.4842C23.9307 10.3559 23.86 10.2407 23.7603 10.1538L12.8653 0.331841C12.6246 0.117471 12.3135 -0.000976562 11.9913 -0.000976562C11.669 -0.000976562 11.3579 0.117471 11.1173 0.331841L0.217254 10.1538C0.119153 10.2414 0.0499012 10.3566 0.0186408 10.4843C-0.0126195 10.612 -0.00441904 10.7462 0.0421599 10.8691C0.0887388 10.9921 0.171506 11.098 0.279537 11.1729C0.387567 11.2479 0.515781 11.2883 0.647254 11.2888H2.86125V20.4188C2.86335 20.763 3.00099 21.0924 3.24433 21.3358C3.48768 21.5791 3.81712 21.7167 4.16125 21.7188H8.07425C8.41995 21.7191 8.75169 21.5825 8.99698 21.3389C9.24226 21.0953 9.38114 20.7645 9.38325 20.4188Z" fill="#3182F7"/>
</svg>
