<svg width="24" height="21" viewBox="0 0 24 21" fill="none" xmlns="http://www.w3.org/2000/svg">
<path d="M23.9943 9.28883C23.8976 6.91902 22.8841 4.67944 21.1676 3.04265C19.4512 1.40585 17.166 0.499858 14.7943 0.515833H8.99925C7.17194 0.516159 5.38802 1.0727 3.88467 2.11146C2.38133 3.15023 1.2298 4.62199 0.58318 6.33107C-0.0634374 8.04015 -0.1745 9.90557 0.264758 11.6793C0.704016 13.453 1.67278 15.051 3.04225 16.2608L1.04225 20.9748L5.98425 17.9948C6.94738 18.3512 7.96736 18.5291 8.99425 18.5198H15.0183C16.2185 18.5198 17.4066 18.2791 18.5123 17.812C19.6179 17.3449 20.6187 16.6609 21.4555 15.8005C22.2923 14.94 22.9481 13.9205 23.3842 12.8022C23.8202 11.684 24.0277 10.4886 23.9943 9.28883ZM15.0573 15.2468H9.06425C7.74246 15.2159 6.46773 14.7501 5.43733 13.9216C4.40693 13.0931 3.67832 11.9481 3.36425 10.6638C3.19324 9.83003 3.21033 8.96858 3.41428 8.14222C3.61824 7.31586 4.00392 6.54538 4.54324 5.88689C5.08256 5.2284 5.76194 4.69848 6.53192 4.33571C7.3019 3.97294 8.1431 3.78645 8.99425 3.78983H14.9843C16.3059 3.82092 17.5804 4.28661 18.6108 5.11486C19.6411 5.94312 20.3698 7.08779 20.6843 8.37183C20.8494 9.20503 20.8281 10.0644 20.6218 10.8884C20.4156 11.7124 20.0295 12.4805 19.4914 13.1377C18.9532 13.7949 18.2763 14.3248 17.5091 14.6894C16.742 15.0541 15.9037 15.2444 15.0543 15.2468H15.0573Z" fill="#3182F7"/>
</svg>
