<svg width="38" height="34" viewBox="0 0 38 34" fill="none" xmlns="http://www.w3.org/2000/svg">
<path d="M20.6666 8.66667L18.8073 4.94819C18.2723 3.87801 18.0047 3.34288 17.6055 2.95194C17.2526 2.60622 16.8271 2.34329 16.36 2.18218C15.8319 2 15.2336 2 14.0371 2H7.66659C5.79974 2 4.86632 2 4.15328 2.36331C3.52608 2.68289 3.01614 3.19282 2.69656 3.82003C2.33325 4.53307 2.33325 5.46649 2.33325 7.33333V8.66667M2.33325 8.66667H27.6666C30.4668 8.66667 31.867 8.66667 32.9365 9.21163C33.8773 9.691 34.6423 10.4559 35.1216 11.3967C35.6666 12.4663 35.6666 13.8664 35.6666 16.6667V24C35.6666 26.8003 35.6666 28.2004 35.1216 29.27C34.6423 30.2108 33.8773 30.9757 32.9365 31.455C31.867 32 30.4668 32 27.6666 32H10.3333C7.53299 32 6.13286 32 5.0633 31.455C4.12249 30.9757 3.35759 30.2108 2.87822 29.27C2.33325 28.2004 2.33325 26.8003 2.33325 24V8.66667ZM13.9999 20.3333L17.3333 23.6667L24.8333 16.1667" stroke="#007AFF" stroke-width="3.33333" stroke-linecap="round" stroke-linejoin="round"/>
</svg>
