<svg width="27" height="21" viewBox="0 0 27 21" fill="none" xmlns="http://www.w3.org/2000/svg">
<path d="M23.5552 2.27784C23.7466 2.27837 23.9299 2.3546 24.0652 2.48989C24.2005 2.62518 24.2767 2.80852 24.2772 2.99984V4.44384H2.61124V2.99984C2.61177 2.80852 2.68801 2.62518 2.8233 2.48989C2.95858 2.3546 3.14192 2.27837 3.33324 2.27784H23.5552ZM24.2772 8.77784V17.4448C24.2767 17.6362 24.2005 17.8195 24.0652 17.9548C23.9299 18.0901 23.7466 18.1663 23.5552 18.1668H3.33324C3.14192 18.1663 2.95858 18.0901 2.8233 17.9548C2.68801 17.8195 2.61177 17.6362 2.61124 17.4448V8.77784H24.2772ZM3.33324 0.11084C2.56728 0.111634 1.83291 0.416265 1.29129 0.957886C0.749669 1.49951 0.445039 2.23387 0.444244 2.99984L0.444244 17.4438C0.445039 18.2098 0.749669 18.9442 1.29129 19.4858C1.83291 20.0274 2.56728 20.332 3.33324 20.3328H23.5552C24.3212 20.332 25.0556 20.0274 25.5972 19.4858C26.1388 18.9442 26.4435 18.2098 26.4442 17.4438V2.99984C26.4435 2.23387 26.1388 1.49951 25.5972 0.957886C25.0556 0.416265 24.3212 0.111634 23.5552 0.11084H3.33324ZM5.86124 13.8328C5.57388 13.8328 5.29829 13.947 5.09509 14.1502C4.8919 14.3534 4.77774 14.629 4.77774 14.9163C4.77774 15.2037 4.8919 15.4793 5.09509 15.6825C5.29829 15.8857 5.57388 15.9998 5.86124 15.9998H8.02724C8.31461 15.9998 8.5902 15.8857 8.7934 15.6825C8.99659 15.4793 9.11074 15.2037 9.11074 14.9163C9.11074 14.629 8.99659 14.3534 8.7934 14.1502C8.5902 13.947 8.31461 13.8328 8.02724 13.8328H5.86124ZM11.6392 13.8328C11.3519 13.8328 11.0763 13.947 10.8731 14.1502C10.6699 14.3534 10.5557 14.629 10.5557 14.9163C10.5557 15.2037 10.6699 15.4793 10.8731 15.6825C11.0763 15.8857 11.3519 15.9998 11.6392 15.9998H16.6942C16.9816 15.9998 17.2572 15.8857 17.4604 15.6825C17.6636 15.4793 17.7777 15.2037 17.7777 14.9163C17.7777 14.629 17.6636 14.3534 17.4604 14.1502C17.2572 13.947 16.9816 13.8328 16.6942 13.8328H11.6392Z" fill="#B0B9C2"/>
</svg>
