<svg width="60" height="60" viewBox="0 0 60 60" fill="none" xmlns="http://www.w3.org/2000/svg">
<path d="M60 30C60 46.5685 46.5685 60 30 60C13.4315 60 0 46.5685 0 30C0 13.4315 13.4315 0 30 0C46.5685 0 60 13.4315 60 30Z" fill="#FFE600"/>
<path d="M30.7692 15.769C40.4359 15.769 48.2709 21.8757 48.2709 29.4107C48.2709 36.944 40.4359 43.0507 30.7709 43.0507C29.8086 43.049 28.8473 42.9878 27.8925 42.8674L20.5459 47.6724C19.7109 48.114 19.4159 48.0657 19.7592 46.984L21.2459 40.854C16.4459 38.4207 13.2709 34.204 13.2709 29.4107C13.2709 21.8774 21.1042 15.769 30.7709 15.769M40.6175 29.2024L43.0675 26.829C43.2089 26.6822 43.2878 26.4863 43.2875 26.2825C43.2873 26.0786 43.2079 25.8829 43.0662 25.7364C42.9245 25.5899 42.7315 25.5042 42.5278 25.4972C42.3241 25.4902 42.1256 25.5626 41.9742 25.699L38.7609 28.809V26.239C38.7609 26.0304 38.678 25.8303 38.5305 25.6828C38.3829 25.5353 38.1828 25.4524 37.9742 25.4524C37.7656 25.4524 37.5655 25.5353 37.4179 25.6828C37.2704 25.8303 37.1875 26.0304 37.1875 26.239V30.5007C37.1598 30.6225 37.1598 30.7489 37.1875 30.8707V33.269C37.1875 33.4777 37.2704 33.6778 37.4179 33.8253C37.5655 33.9728 37.7656 34.0557 37.9742 34.0557C38.1828 34.0557 38.3829 33.9728 38.5305 33.8253C38.678 33.6778 38.7609 33.4777 38.7609 33.269V30.9974L39.4725 30.309L41.8525 33.6974C41.912 33.782 41.9875 33.854 42.0747 33.9094C42.162 33.9649 42.2593 34.0025 42.3612 34.0203C42.463 34.0381 42.5674 34.0357 42.6682 34.0132C42.7691 33.9906 42.8646 33.9485 42.9492 33.889C43.0338 33.8296 43.1059 33.7541 43.1613 33.6668C43.2167 33.5796 43.2544 33.4822 43.2722 33.3804C43.29 33.2786 43.2875 33.1742 43.265 33.0733C43.2425 32.9724 43.2003 32.877 43.1409 32.7924L40.6175 29.2024ZM35.6875 32.409H33.2542V26.264C33.2449 26.0619 33.158 25.8711 33.0117 25.7313C32.8653 25.5916 32.6707 25.5136 32.4684 25.5136C32.266 25.5136 32.0714 25.5916 31.9251 25.7313C31.7787 25.8711 31.6919 26.0619 31.6825 26.264V33.1957C31.6825 33.629 32.0325 33.9824 32.4675 33.9824H35.6875C35.8962 33.9824 36.0963 33.8995 36.2438 33.752C36.3913 33.6044 36.4742 33.4043 36.4742 33.1957C36.4742 32.9871 36.3913 32.787 36.2438 32.6395C36.0963 32.4919 35.8962 32.409 35.6875 32.409ZM25.9259 30.5907L27.0859 27.744L28.1492 30.589L25.9259 30.5907ZM30.1309 31.4024L30.1342 31.3757C30.1336 31.1776 30.058 30.987 29.9225 30.8424L28.1792 26.1757C28.1061 25.9533 27.9669 25.7585 27.7802 25.6174C27.5935 25.4762 27.3681 25.3954 27.1342 25.3857C26.8988 25.3856 26.6689 25.4567 26.4747 25.5897C26.2804 25.7226 26.131 25.9112 26.0459 26.1307L23.2759 32.9224C23.197 33.1155 23.198 33.3321 23.2788 33.5245C23.3596 33.7169 23.5135 33.8693 23.7067 33.9482C23.8999 34.0271 24.1165 34.026 24.3089 33.9453C24.5012 33.8645 24.6536 33.7105 24.7325 33.5174L25.2859 32.1624H28.7359L29.2325 33.4957C29.2664 33.5954 29.32 33.6872 29.39 33.7658C29.46 33.8444 29.5451 33.9082 29.6402 33.9533C29.7353 33.9984 29.8385 34.024 29.9437 34.0285C30.0488 34.033 30.1538 34.0163 30.2525 33.9795C30.3511 33.9427 30.4413 33.8865 30.5178 33.8141C30.5943 33.7418 30.6555 33.6549 30.6978 33.5585C30.74 33.4621 30.7626 33.3582 30.7639 33.2529C30.7653 33.1477 30.7456 33.0432 30.7059 32.9457L30.1309 31.4024ZM24.5925 26.2724C24.593 26.1691 24.573 26.0667 24.5337 25.9712C24.4944 25.8757 24.4367 25.7888 24.3637 25.7157C24.2907 25.6426 24.204 25.5847 24.1086 25.5452C24.0131 25.5057 23.9108 25.4855 23.8075 25.4857H18.3992C18.1906 25.4857 17.9905 25.5686 17.8429 25.7161C17.6954 25.8636 17.6125 26.0637 17.6125 26.2724C17.6125 26.481 17.6954 26.6811 17.8429 26.8286C17.9905 26.9762 18.1906 27.059 18.3992 27.059H20.3325V33.2857C20.3325 33.4943 20.4154 33.6944 20.5629 33.842C20.7105 33.9895 20.9106 34.0724 21.1192 34.0724C21.3278 34.0724 21.5279 33.9895 21.6755 33.842C21.823 33.6944 21.9059 33.4943 21.9059 33.2857V27.059H23.8059C23.9093 27.0595 24.0118 27.0394 24.1074 27.0001C24.2031 26.9607 24.29 26.9028 24.3631 26.8296C24.4363 26.7565 24.4942 26.6696 24.5336 26.5739C24.5729 26.4783 24.593 26.3758 24.5925 26.2724Z" fill="#381B1B"/>
</svg>
