<svg width="36" height="34" viewBox="0 0 36 34" fill="none" xmlns="http://www.w3.org/2000/svg">
<path d="M1.33325 11.962C1.33325 11.3781 1.33325 11.0862 1.35761 10.8403C1.59259 8.4687 3.4687 6.59259 5.84027 6.35761C6.08616 6.33325 6.39385 6.33325 7.00922 6.33325C7.24634 6.33325 7.3649 6.33325 7.46556 6.32716C8.75094 6.24931 9.8765 5.43805 10.3568 4.24325C10.3944 4.14968 10.4296 4.04421 10.4999 3.83325C10.5702 3.6223 10.6054 3.51682 10.643 3.42325C11.1233 2.22846 12.2489 1.41719 13.5343 1.33935C13.6349 1.33325 13.7461 1.33325 13.9685 1.33325H22.0314C22.2537 1.33325 22.3649 1.33325 22.4656 1.33935C23.7509 1.41719 24.8765 2.22846 25.3568 3.42325C25.3944 3.51682 25.4296 3.6223 25.4999 3.83325C25.5702 4.04421 25.6054 4.14968 25.643 4.24325C26.1233 5.43805 27.2489 6.24931 28.5343 6.32716C28.6349 6.33325 28.7535 6.33325 28.9906 6.33325C29.606 6.33325 29.9137 6.33325 30.1596 6.35761C32.5311 6.59259 34.4073 8.4687 34.6422 10.8403C34.6666 11.0862 34.6666 11.3781 34.6666 11.962V24.9999C34.6666 27.8002 34.6666 29.2003 34.1216 30.2699C33.6423 31.2107 32.8773 31.9756 31.9365 32.455C30.867 32.9999 29.4668 32.9999 26.6666 32.9999H9.33325C6.53299 32.9999 5.13286 32.9999 4.0633 32.455C3.12249 31.9756 2.35759 31.2107 1.87822 30.2699C1.33325 29.2003 1.33325 27.8002 1.33325 24.9999V11.962Z" stroke="#007AFF" stroke-width="2" stroke-linecap="round" stroke-linejoin="round"/>
<path d="M17.9999 25.4999C21.6818 25.4999 24.6666 22.5151 24.6666 18.8333C24.6666 15.1514 21.6818 12.1666 17.9999 12.1666C14.318 12.1666 11.3333 15.1514 11.3333 18.8333C11.3333 22.5151 14.318 25.4999 17.9999 25.4999Z" stroke="#007AFF" stroke-width="2" stroke-linecap="round" stroke-linejoin="round"/>
</svg>
