<svg width="20" height="22" viewBox="0 0 20 22" fill="none" xmlns="http://www.w3.org/2000/svg">
<path d="M17.5973 2.17175H13.0573C12.8346 1.53705 12.4203 0.9872 11.8716 0.598194C11.3229 0.209189 10.6669 0.000244141 9.99425 0.000244141C9.32164 0.000244141 8.66564 0.209189 8.11693 0.598194C7.56822 0.9872 7.1539 1.53705 6.93125 2.17175H2.39025C1.8146 2.17359 1.26306 2.40316 0.856106 2.8103C0.449148 3.21745 0.219836 3.76909 0.218254 4.34475V19.5507C0.2201 20.1262 0.449528 20.6776 0.856457 21.0845C1.26339 21.4915 1.81477 21.7209 2.39025 21.7227H17.5973C18.1727 21.7209 18.7241 21.4915 19.1311 21.0845C19.538 20.6776 19.7674 20.1262 19.7693 19.5507V4.34475C19.7677 3.76909 19.5384 3.21745 19.1314 2.8103C18.7244 2.40316 18.1729 2.17359 17.5973 2.17175ZM9.99725 1.89975C10.1584 1.89975 10.316 1.94754 10.45 2.0371C10.5841 2.12665 10.6885 2.25394 10.7502 2.40286C10.8119 2.55178 10.828 2.71565 10.7966 2.87374C10.7651 3.03184 10.6875 3.17706 10.5735 3.29104C10.4596 3.40502 10.3143 3.48264 10.1563 3.51409C9.99816 3.54553 9.83429 3.52939 9.68537 3.46771C9.53644 3.40602 9.40916 3.30156 9.31961 3.16754C9.23005 3.03351 9.18225 2.87594 9.18225 2.71475C9.18381 2.49959 9.26977 2.29365 9.42163 2.14123C9.57349 1.98881 9.77911 1.9021 9.99425 1.89975H9.99725ZM17.5973 19.5497H2.39025V4.34475H17.5973V19.5497Z" fill="#B0B9C2"/>
<path d="M13.3393 10.8937L11.0393 8.59369L4.56326 15.0537V17.3777H6.84426L13.3393 10.8937ZM15.2633 8.98269C15.3148 8.93256 15.3557 8.87262 15.3836 8.80641C15.4116 8.7402 15.426 8.66906 15.426 8.59719C15.426 8.52532 15.4116 8.45418 15.3836 8.38797C15.3557 8.32176 15.3148 8.26182 15.2633 8.21169L13.7313 6.67969C13.6811 6.62819 13.6212 6.58726 13.555 6.55931C13.4888 6.53137 13.4176 6.51697 13.3458 6.51697C13.2739 6.51697 13.2027 6.53137 13.1365 6.55931C13.0703 6.58726 13.0104 6.62819 12.9603 6.67969L11.8093 7.83069L14.1093 10.1307L15.2633 8.98269Z" fill="#B0B9C2"/>
</svg>
