<svg width="21" height="21" viewBox="0 0 21 21" fill="none" xmlns="http://www.w3.org/2000/svg">
<path d="M6.99426 -0.000244141H1.99426C0.889693 -0.000244141 -0.0057373 0.895186 -0.0057373 1.99976V6.99976C-0.0057373 8.10433 0.889693 8.99976 1.99426 8.99976H6.99426C8.09883 8.99976 8.99426 8.10433 8.99426 6.99976V1.99976C8.99426 0.895186 8.09883 -0.000244141 6.99426 -0.000244141Z" fill="#3182F7"/>
<path d="M6.99426 11.9998H1.99426C0.889693 11.9998 -0.0057373 12.8952 -0.0057373 13.9998V18.9998C-0.0057373 20.1043 0.889693 20.9998 1.99426 20.9998H6.99426C8.09883 20.9998 8.99426 20.1043 8.99426 18.9998V13.9998C8.99426 12.8952 8.09883 11.9998 6.99426 11.9998Z" fill="#3182F7"/>
<path d="M18.9943 -0.000244141H13.9943C12.8897 -0.000244141 11.9943 0.895186 11.9943 1.99976V6.99976C11.9943 8.10433 12.8897 8.99976 13.9943 8.99976H18.9943C20.0988 8.99976 20.9943 8.10433 20.9943 6.99976V1.99976C20.9943 0.895186 20.0988 -0.000244141 18.9943 -0.000244141Z" fill="#3182F7"/>
<path d="M18.9943 11.9998H13.9943C12.8897 11.9998 11.9943 12.8952 11.9943 13.9998V18.9998C11.9943 20.1043 12.8897 20.9998 13.9943 20.9998H18.9943C20.0988 20.9998 20.9943 20.1043 20.9943 18.9998V13.9998C20.9943 12.8952 20.0988 11.9998 18.9943 11.9998Z" fill="#3182F7"/>
</svg>
